<svg xmlns="http://www.w3.org/2000/svg" xmlns:xlink="http://www.w3.org/1999/xlink" width="1080" zoomAndPan="magnify" viewBox="0 0 810 809.999993" height="1080" preserveAspectRatio="xMidYMid meet" version="1.0"><defs><g/><clipPath id="6962362a9c"><path d="M 505.808594 240.214844 L 773.558594 240.214844 L 773.558594 640.714844 L 505.808594 640.714844 Z M 505.808594 240.214844 " clip-rule="nonzero"/></clipPath><clipPath id="5e95f09a78"><path d="M 566.136719 312.210938 L 713.886719 312.210938 L 713.886719 440.460938 L 566.136719 440.460938 Z M 566.136719 312.210938 " clip-rule="nonzero"/></clipPath><clipPath id="7c5f36e257"><rect x="0" width="457" y="0" height="423"/></clipPath><clipPath id="975a6dfb0f"><rect x="0" width="506" y="0" height="64"/></clipPath></defs><g clip-path="url(#6962362a9c)"><path fill="#ffffff" d="M 546.863281 374.117188 C 546.863281 322.757812 588.496094 281.121094 639.855469 281.121094 C 691.214844 281.121094 732.847656 322.757812 732.847656 374.117188 C 732.847656 425.472656 691.214844 467.105469 639.855469 467.105469 C 588.496094 467.105469 546.863281 425.472656 546.863281 374.117188 Z M 773.742188 374.117188 C 773.742188 300.167969 713.800781 240.226562 639.855469 240.226562 C 565.910156 240.226562 505.964844 300.167969 505.964844 374.117188 C 505.964844 440.421875 554.175781 495.433594 617.445312 506.101562 L 617.445312 550.632812 L 571.808594 550.632812 L 571.808594 595.445312 L 617.445312 595.445312 L 617.445312 641.085938 L 662.261719 641.085938 L 662.261719 595.445312 L 707.902344 595.445312 L 707.902344 550.632812 L 662.261719 550.632812 L 662.261719 506.101562 C 725.535156 495.433594 773.742188 440.421875 773.742188 374.117188 " fill-opacity="1" fill-rule="nonzero"/></g><g clip-path="url(#5e95f09a78)"><path fill="#ffffff" d="M 639.847656 312.273438 C 613.324219 312.273438 588.808594 321.453125 569.476562 336.792969 C 569.03125 337.128906 568.625 337.503906 568.253906 337.921875 C 567.882812 338.339844 567.558594 338.789062 567.277344 339.273438 C 566.996094 339.753906 566.765625 340.261719 566.585938 340.789062 C 566.410156 341.320312 566.285156 341.859375 566.210938 342.414062 C 566.140625 342.96875 566.125 343.523438 566.167969 344.078125 C 566.207031 344.636719 566.304688 345.183594 566.453125 345.71875 C 566.601562 346.257812 566.804688 346.777344 567.058594 347.273438 C 567.3125 347.769531 567.613281 348.238281 567.960938 348.675781 C 568.308594 349.109375 568.695312 349.507812 569.121094 349.867188 C 569.546875 350.226562 570.007812 350.542969 570.496094 350.808594 C 570.984375 351.078125 571.496094 351.292969 572.03125 351.460938 C 572.5625 351.625 573.109375 351.734375 573.664062 351.792969 C 574.21875 351.847656 574.773438 351.847656 575.328125 351.792969 C 575.882812 351.738281 576.429688 351.628906 576.960938 351.464844 C 577.496094 351.300781 578.007812 351.085938 578.5 350.820312 C 578.988281 350.554688 579.449219 350.242188 579.875 349.882812 C 596.367188 336.796875 617.175781 328.996094 639.847656 328.996094 C 662.523438 328.996094 683.328125 336.796875 699.820312 349.882812 C 700.25 350.242188 700.710938 350.554688 701.199219 350.820312 C 701.691406 351.085938 702.203125 351.300781 702.734375 351.464844 C 703.269531 351.628906 703.8125 351.738281 704.367188 351.792969 C 704.925781 351.847656 705.480469 351.847656 706.035156 351.792969 C 706.589844 351.734375 707.132812 351.625 707.667969 351.460938 C 708.199219 351.292969 708.710938 351.078125 709.203125 350.808594 C 709.691406 350.542969 710.148438 350.226562 710.578125 349.867188 C 711.003906 349.507812 711.390625 349.109375 711.738281 348.675781 C 712.085938 348.238281 712.386719 347.769531 712.640625 347.273438 C 712.894531 346.777344 713.09375 346.257812 713.246094 345.71875 C 713.394531 345.183594 713.492188 344.636719 713.53125 344.078125 C 713.570312 343.523438 713.554688 342.96875 713.484375 342.414062 C 713.414062 341.859375 713.289062 341.320312 713.109375 340.789062 C 712.929688 340.261719 712.703125 339.753906 712.421875 339.273438 C 712.140625 338.789062 711.816406 338.339844 711.445312 337.921875 C 711.074219 337.503906 710.667969 337.128906 710.21875 336.792969 C 690.890625 321.453125 666.375 312.273438 639.847656 312.273438 Z M 639.847656 345.414062 C 620.554688 345.414062 602.804688 352.261719 589.007812 363.625 C 588.582031 363.972656 588.199219 364.359375 587.851562 364.785156 C 587.503906 365.210938 587.199219 365.667969 586.941406 366.152344 C 586.683594 366.636719 586.476562 367.140625 586.316406 367.667969 C 586.15625 368.191406 586.050781 368.726562 586 369.273438 C 585.945312 369.820312 585.949219 370.367188 586.003906 370.914062 C 586.058594 371.460938 586.164062 371.996094 586.324219 372.523438 C 586.484375 373.046875 586.695312 373.550781 586.953125 374.035156 C 587.214844 374.519531 587.519531 374.972656 587.867188 375.398438 C 588.21875 375.820312 588.605469 376.207031 589.03125 376.554688 C 589.457031 376.902344 589.910156 377.203125 590.394531 377.460938 C 590.878906 377.71875 591.386719 377.929688 591.910156 378.085938 C 592.4375 378.246094 592.972656 378.351562 593.519531 378.402344 C 594.066406 378.457031 594.613281 378.453125 595.160156 378.398438 C 595.707031 378.34375 596.242188 378.238281 596.765625 378.074219 C 597.292969 377.914062 597.796875 377.707031 598.28125 377.445312 C 598.761719 377.183594 599.21875 376.878906 599.640625 376.53125 C 610.566406 367.535156 624.496094 362.136719 639.847656 362.136719 C 655.199219 362.136719 669.132812 367.535156 680.058594 376.53125 C 680.480469 376.882812 680.933594 377.1875 681.417969 377.445312 C 681.902344 377.707031 682.40625 377.917969 682.933594 378.078125 C 683.457031 378.238281 683.992188 378.34375 684.539062 378.402344 C 685.085938 378.457031 685.632812 378.457031 686.179688 378.402344 C 686.726562 378.351562 687.261719 378.246094 687.789062 378.085938 C 688.3125 377.929688 688.820312 377.722656 689.304688 377.464844 C 689.789062 377.207031 690.246094 376.902344 690.667969 376.554688 C 691.09375 376.207031 691.480469 375.820312 691.832031 375.398438 C 692.179688 374.972656 692.484375 374.519531 692.746094 374.035156 C 693.003906 373.550781 693.214844 373.046875 693.375 372.523438 C 693.535156 371.996094 693.644531 371.460938 693.699219 370.914062 C 693.753906 370.367188 693.753906 369.820312 693.699219 369.273438 C 693.648438 368.730469 693.542969 368.191406 693.382812 367.667969 C 693.222656 367.140625 693.015625 366.636719 692.757812 366.152344 C 692.5 365.664062 692.195312 365.210938 691.847656 364.785156 C 691.5 364.359375 691.113281 363.972656 690.691406 363.625 C 676.894531 352.261719 659.144531 345.414062 639.847656 345.414062 Z M 639.847656 378.621094 C 628.609375 378.621094 618.179688 382.609375 610.078125 389.332031 C 609.65625 389.683594 609.273438 390.074219 608.925781 390.5 C 608.582031 390.925781 608.28125 391.382812 608.023438 391.867188 C 607.769531 392.355469 607.5625 392.859375 607.40625 393.386719 C 607.25 393.910156 607.148438 394.449219 607.097656 394.996094 C 607.046875 395.542969 607.050781 396.085938 607.109375 396.632812 C 607.164062 397.179688 607.273438 397.714844 607.4375 398.238281 C 607.601562 398.761719 607.8125 399.265625 608.074219 399.75 C 608.335938 400.230469 608.640625 400.683594 608.992188 401.105469 C 609.34375 401.527344 609.730469 401.914062 610.15625 402.257812 C 610.582031 402.605469 611.039062 402.90625 611.523438 403.160156 C 612.011719 403.417969 612.515625 403.621094 613.042969 403.78125 C 613.566406 403.9375 614.105469 404.039062 614.652344 404.089844 C 615.199219 404.140625 615.742188 404.136719 616.289062 404.082031 C 616.835938 404.023438 617.371094 403.914062 617.894531 403.753906 C 618.417969 403.589844 618.921875 403.378906 619.40625 403.117188 C 619.886719 402.855469 620.339844 402.550781 620.765625 402.199219 C 625.972656 397.875 632.535156 395.34375 639.847656 395.34375 C 647.164062 395.34375 653.722656 397.875 658.933594 402.199219 C 659.355469 402.550781 659.808594 402.855469 660.292969 403.117188 C 660.773438 403.378906 661.277344 403.589844 661.800781 403.753906 C 662.328125 403.914062 662.863281 404.023438 663.40625 404.082031 C 663.953125 404.136719 664.5 404.140625 665.046875 404.089844 C 665.59375 404.039062 666.128906 403.933594 666.65625 403.777344 C 667.179688 403.621094 667.6875 403.414062 668.171875 403.160156 C 668.65625 402.902344 669.113281 402.601562 669.539062 402.257812 C 669.964844 401.910156 670.355469 401.527344 670.707031 401.105469 C 671.054688 400.683594 671.363281 400.230469 671.625 399.75 C 671.886719 399.265625 672.097656 398.761719 672.257812 398.238281 C 672.421875 397.714844 672.53125 397.179688 672.589844 396.632812 C 672.644531 396.085938 672.648438 395.542969 672.597656 394.996094 C 672.550781 394.449219 672.445312 393.910156 672.289062 393.386719 C 672.132812 392.859375 671.929688 392.355469 671.671875 391.867188 C 671.417969 391.382812 671.117188 390.925781 670.769531 390.5 C 670.425781 390.074219 670.042969 389.683594 669.621094 389.332031 C 661.519531 382.609375 651.085938 378.621094 639.847656 378.621094 Z M 639.847656 410.457031 C 638.859375 410.457031 637.882812 410.554688 636.914062 410.746094 C 635.945312 410.9375 635.003906 411.222656 634.089844 411.601562 C 633.175781 411.980469 632.308594 412.445312 631.488281 412.992188 C 630.667969 413.542969 629.90625 414.164062 629.207031 414.863281 C 628.507812 415.5625 627.886719 416.324219 627.335938 417.144531 C 626.789062 417.964844 626.324219 418.832031 625.945312 419.746094 C 625.566406 420.660156 625.28125 421.601562 625.089844 422.570312 C 624.898438 423.539062 624.800781 424.515625 624.800781 425.503906 C 624.800781 426.492188 624.898438 427.472656 625.089844 428.441406 C 625.28125 429.410156 625.566406 430.351562 625.945312 431.265625 C 626.324219 432.175781 626.789062 433.042969 627.335938 433.867188 C 627.886719 434.6875 628.507812 435.449219 629.207031 436.144531 C 629.90625 436.84375 630.667969 437.46875 631.488281 438.019531 C 632.308594 438.566406 633.175781 439.03125 634.089844 439.410156 C 635.003906 439.785156 635.945312 440.070312 636.914062 440.265625 C 637.882812 440.457031 638.859375 440.554688 639.847656 440.554688 C 640.835938 440.554688 641.816406 440.457031 642.785156 440.265625 C 643.753906 440.070312 644.695312 439.785156 645.609375 439.410156 C 646.519531 439.03125 647.386719 438.566406 648.210938 438.019531 C 649.03125 437.46875 649.792969 436.84375 650.488281 436.144531 C 651.1875 435.449219 651.8125 434.6875 652.363281 433.867188 C 652.910156 433.042969 653.375 432.175781 653.753906 431.265625 C 654.128906 430.351562 654.414062 429.410156 654.609375 428.441406 C 654.800781 427.472656 654.898438 426.492188 654.898438 425.503906 C 654.898438 424.515625 654.800781 423.539062 654.609375 422.570312 C 654.414062 421.601562 654.128906 420.660156 653.753906 419.746094 C 653.375 418.832031 652.910156 417.964844 652.363281 417.144531 C 651.8125 416.324219 651.1875 415.5625 650.488281 414.863281 C 649.792969 414.164062 649.03125 413.542969 648.210938 412.992188 C 647.386719 412.445312 646.519531 411.980469 645.609375 411.601562 C 644.695312 411.222656 643.753906 410.9375 642.785156 410.746094 C 641.816406 410.554688 640.835938 410.457031 639.847656 410.457031 Z M 639.847656 410.457031 " fill-opacity="1" fill-rule="nonzero"/></g><g transform="matrix(1, 0, 0, 1, 36, 165)"><g clip-path="url(#7c5f36e257)"><g fill="#ffffff" fill-opacity="1"><g transform="translate(0.108774, 339.439871)"><g><path d="M 75.203125 -61.34375 L 181.9375 -61.34375 C 187.257812 -61.34375 191.25 -61.164062 193.90625 -60.8125 C 196.5625 -60.46875 199.617188 -59.375 203.078125 -57.53125 C 209.316406 -54.289062 212.4375 -45.28125 212.4375 -30.5 C 212.4375 -14.320312 208.164062 -4.847656 199.625 -2.078125 C 195.695312 -0.691406 189.6875 0 181.59375 0 L 44.359375 0 C 28.179688 0 18.707031 -4.390625 15.9375 -13.171875 C 14.550781 -16.867188 13.859375 -22.757812 13.859375 -30.84375 L 13.859375 -223.53125 C 13.859375 -235.3125 16.050781 -243.335938 20.4375 -247.609375 C 24.832031 -251.890625 33.15625 -254.03125 45.40625 -254.03125 L 181.9375 -254.03125 C 187.257812 -254.03125 191.25 -253.851562 193.90625 -253.5 C 196.5625 -253.15625 199.617188 -252.0625 203.078125 -250.21875 C 209.316406 -246.976562 212.4375 -237.96875 212.4375 -223.1875 C 212.4375 -207.007812 208.164062 -197.535156 199.625 -194.765625 C 195.695312 -193.378906 189.6875 -192.6875 181.59375 -192.6875 L 75.203125 -192.6875 L 75.203125 -157.6875 L 143.828125 -157.6875 C 149.140625 -157.6875 153.125 -157.507812 155.78125 -157.15625 C 158.4375 -156.8125 161.5 -155.71875 164.96875 -153.875 C 171.207031 -150.632812 174.328125 -141.625 174.328125 -126.84375 C 174.328125 -110.664062 169.9375 -101.191406 161.15625 -98.421875 C 157.226562 -97.035156 151.21875 -96.34375 143.125 -96.34375 L 75.203125 -96.34375 Z M 75.203125 -61.34375 "/></g></g></g><g fill="#ffffff" fill-opacity="1"><g transform="translate(221.182182, 339.439871)"><g><path d="M 172.59375 -66.546875 L 178.828125 -71.046875 C 186.679688 -75.660156 192.226562 -77.96875 195.46875 -77.96875 C 202.625 -77.96875 210.363281 -71.5 218.6875 -58.5625 C 223.769531 -50.476562 226.3125 -44.007812 226.3125 -39.15625 C 226.3125 -34.3125 224.75 -30.269531 221.625 -27.03125 C 218.507812 -23.800781 214.867188 -20.914062 210.703125 -18.375 C 206.546875 -15.832031 202.5625 -13.40625 198.75 -11.09375 C 194.9375 -8.78125 187.140625 -5.773438 175.359375 -2.078125 C 163.578125 1.617188 152.195312 3.46875 141.21875 3.46875 C 130.25 3.46875 119.160156 2.023438 107.953125 -0.859375 C 96.742188 -3.753906 85.191406 -8.609375 73.296875 -15.421875 C 61.398438 -22.234375 50.710938 -30.550781 41.234375 -40.375 C 31.765625 -50.195312 23.96875 -62.789062 17.84375 -78.15625 C 11.71875 -93.519531 8.65625 -110.210938 8.65625 -128.234375 C 8.65625 -146.253906 11.660156 -162.597656 17.671875 -177.265625 C 23.679688 -191.929688 31.363281 -204.054688 40.71875 -213.640625 C 50.070312 -223.234375 60.757812 -231.265625 72.78125 -237.734375 C 95.414062 -250.210938 118.171875 -256.453125 141.046875 -256.453125 C 151.910156 -256.453125 162.941406 -254.773438 174.140625 -251.421875 C 185.347656 -248.078125 193.84375 -244.671875 199.625 -241.203125 L 207.9375 -236.359375 C 212.09375 -233.816406 215.328125 -231.738281 217.640625 -230.125 C 223.648438 -225.269531 226.65625 -219.78125 226.65625 -213.65625 C 226.65625 -207.53125 224.226562 -201.117188 219.375 -194.421875 C 210.363281 -181.941406 202.273438 -175.703125 195.109375 -175.703125 C 190.953125 -175.703125 185.0625 -178.242188 177.4375 -183.328125 C 167.738281 -191.179688 154.800781 -195.109375 138.625 -195.109375 C 123.601562 -195.109375 108.816406 -189.910156 94.265625 -179.515625 C 87.335938 -174.429688 81.5625 -167.269531 76.9375 -158.03125 C 72.3125 -148.789062 70 -138.335938 70 -126.671875 C 70 -115.003906 72.3125 -104.546875 76.9375 -95.296875 C 81.5625 -86.054688 87.453125 -78.78125 94.609375 -73.46875 C 108.703125 -63.300781 123.375 -58.21875 138.625 -58.21875 C 145.789062 -58.21875 152.546875 -59.140625 158.890625 -60.984375 C 165.242188 -62.835938 169.8125 -64.691406 172.59375 -66.546875 Z M 172.59375 -66.546875 "/></g></g></g></g></g><g transform="matrix(1, 0, 0, 1, 47, 539)"><g clip-path="url(#975a6dfb0f)"><g fill="#ffffff" fill-opacity="1"><g transform="translate(1.691858, 50.983872)"><g><path d="M 11.359375 -9.265625 L 27.484375 -9.265625 C 28.285156 -9.265625 28.882812 -9.238281 29.28125 -9.1875 C 29.6875 -9.132812 30.148438 -8.96875 30.671875 -8.6875 C 31.617188 -8.195312 32.09375 -6.835938 32.09375 -4.609375 C 32.09375 -2.160156 31.445312 -0.726562 30.15625 -0.3125 C 29.5625 -0.101562 28.648438 0 27.421875 0 L 6.703125 0 C 4.253906 0 2.820312 -0.660156 2.40625 -1.984375 C 2.195312 -2.546875 2.09375 -3.4375 2.09375 -4.65625 L 2.09375 -33.765625 C 2.09375 -35.546875 2.421875 -36.757812 3.078125 -37.40625 C 3.742188 -38.050781 5.003906 -38.375 6.859375 -38.375 L 27.484375 -38.375 C 28.285156 -38.375 28.882812 -38.347656 29.28125 -38.296875 C 29.6875 -38.242188 30.148438 -38.078125 30.671875 -37.796875 C 31.617188 -37.304688 32.09375 -35.941406 32.09375 -33.703125 C 32.09375 -31.265625 31.445312 -29.835938 30.15625 -29.421875 C 29.5625 -29.210938 28.648438 -29.109375 27.421875 -29.109375 L 11.359375 -29.109375 L 11.359375 -23.8125 L 21.71875 -23.8125 C 22.519531 -23.8125 23.117188 -23.785156 23.515625 -23.734375 C 23.921875 -23.679688 24.390625 -23.515625 24.921875 -23.234375 C 25.859375 -22.753906 26.328125 -21.394531 26.328125 -19.15625 C 26.328125 -16.71875 25.664062 -15.285156 24.34375 -14.859375 C 23.75 -14.648438 22.84375 -14.546875 21.625 -14.546875 L 11.359375 -14.546875 Z M 11.359375 -9.265625 "/></g></g></g><g fill="#ffffff" fill-opacity="1"><g transform="translate(35.083007, 50.983872)"><g><path d="M 11.359375 -7.75 L 25.59375 -7.75 C 26.75 -7.75 27.585938 -7.617188 28.109375 -7.359375 C 28.628906 -7.097656 28.976562 -6.6875 29.15625 -6.125 C 29.332031 -5.5625 29.421875 -4.816406 29.421875 -3.890625 C 29.421875 -2.972656 29.332031 -2.234375 29.15625 -1.671875 C 28.976562 -1.117188 28.679688 -0.738281 28.265625 -0.53125 C 27.597656 -0.175781 26.691406 0 25.546875 0 L 6.703125 0 C 4.253906 0 2.820312 -0.660156 2.40625 -1.984375 C 2.195312 -2.546875 2.09375 -3.4375 2.09375 -4.65625 L 2.09375 -33.765625 C 2.09375 -34.566406 2.117188 -35.164062 2.171875 -35.5625 C 2.222656 -35.96875 2.390625 -36.429688 2.671875 -36.953125 C 3.160156 -37.898438 4.519531 -38.375 6.75 -38.375 C 9.195312 -38.375 10.644531 -37.726562 11.09375 -36.4375 C 11.269531 -35.84375 11.359375 -34.929688 11.359375 -33.703125 Z M 11.359375 -7.75 "/></g></g></g><g fill="#ffffff" fill-opacity="1"><g transform="translate(65.804948, 50.983872)"><g><path d="M 24.234375 -35.640625 L 38.375 -6.4375 C 38.96875 -5.25 39.265625 -4.359375 39.265625 -3.765625 C 39.265625 -2.515625 38.25 -1.378906 36.21875 -0.359375 C 35.03125 0.234375 34.097656 0.53125 33.421875 0.53125 C 32.742188 0.53125 32.1875 0.367188 31.75 0.046875 C 31.3125 -0.265625 30.992188 -0.59375 30.796875 -0.9375 C 30.609375 -1.289062 30.34375 -1.816406 30 -2.515625 L 27.265625 -8.171875 L 12.765625 -8.171875 L 10.046875 -2.515625 C 9.703125 -1.816406 9.429688 -1.3125 9.234375 -1 C 9.046875 -0.6875 8.734375 -0.363281 8.296875 -0.03125 C 7.859375 0.300781 7.296875 0.46875 6.609375 0.46875 C 5.929688 0.46875 5.003906 0.171875 3.828125 -0.421875 C 1.796875 -1.398438 0.78125 -2.515625 0.78125 -3.765625 C 0.78125 -4.359375 1.078125 -5.25 1.671875 -6.4375 L 15.8125 -35.703125 C 16.195312 -36.503906 16.78125 -37.148438 17.5625 -37.640625 C 18.34375 -38.128906 19.171875 -38.375 20.046875 -38.375 C 21.929688 -38.375 23.328125 -37.460938 24.234375 -35.640625 Z M 20 -23.078125 L 16.546875 -15.90625 L 23.5 -15.90625 Z M 20 -23.078125 "/></g></g></g><g fill="#ffffff" fill-opacity="1"><g transform="translate(104.272758, 50.983872)"><g><path d="M 2.671875 -5.390625 C 1.765625 -6.503906 1.3125 -7.503906 1.3125 -8.390625 C 1.3125 -9.285156 2.0625 -10.46875 3.5625 -11.9375 C 4.4375 -12.769531 5.359375 -13.1875 6.328125 -13.1875 C 7.304688 -13.1875 8.671875 -12.316406 10.421875 -10.578125 C 10.910156 -9.984375 11.609375 -9.414062 12.515625 -8.875 C 13.421875 -8.332031 14.253906 -8.0625 15.015625 -8.0625 C 18.265625 -8.0625 19.890625 -9.390625 19.890625 -12.046875 C 19.890625 -12.847656 19.441406 -13.515625 18.546875 -14.046875 C 17.660156 -14.585938 16.554688 -14.976562 15.234375 -15.21875 C 13.910156 -15.46875 12.476562 -15.863281 10.9375 -16.40625 C 9.40625 -16.945312 7.972656 -17.582031 6.640625 -18.3125 C 5.316406 -19.050781 4.207031 -20.210938 3.3125 -21.796875 C 2.425781 -23.390625 1.984375 -25.300781 1.984375 -27.53125 C 1.984375 -30.601562 3.125 -33.28125 5.40625 -35.5625 C 7.695312 -37.851562 10.816406 -39 14.765625 -39 C 16.859375 -39 18.765625 -38.726562 20.484375 -38.1875 C 22.210938 -37.644531 23.410156 -37.09375 24.078125 -36.53125 L 25.390625 -35.546875 C 26.472656 -34.535156 27.015625 -33.679688 27.015625 -32.984375 C 27.015625 -32.285156 26.59375 -31.320312 25.75 -30.09375 C 24.5625 -28.351562 23.34375 -27.484375 22.09375 -27.484375 C 21.351562 -27.484375 20.445312 -27.832031 19.375 -28.53125 C 19.257812 -28.59375 19.054688 -28.765625 18.765625 -29.046875 C 18.472656 -29.328125 18.203125 -29.554688 17.953125 -29.734375 C 17.222656 -30.179688 16.289062 -30.40625 15.15625 -30.40625 C 14.019531 -30.40625 13.078125 -30.132812 12.328125 -29.59375 C 11.578125 -29.0625 11.203125 -28.3125 11.203125 -27.34375 C 11.203125 -26.382812 11.644531 -25.609375 12.53125 -25.015625 C 13.425781 -24.421875 14.535156 -24.019531 15.859375 -23.8125 C 17.179688 -23.601562 18.628906 -23.28125 20.203125 -22.84375 C 21.773438 -22.40625 23.222656 -21.875 24.546875 -21.25 C 25.867188 -20.625 26.972656 -19.535156 27.859375 -17.984375 C 28.753906 -16.429688 29.203125 -14.519531 29.203125 -12.25 C 29.203125 -9.976562 28.75 -7.976562 27.84375 -6.25 C 26.9375 -4.53125 25.75 -3.195312 24.28125 -2.25 C 21.457031 -0.394531 18.441406 0.53125 15.234375 0.53125 C 13.585938 0.53125 12.03125 0.328125 10.5625 -0.078125 C 9.101562 -0.484375 7.921875 -0.984375 7.015625 -1.578125 C 5.160156 -2.691406 3.867188 -3.769531 3.140625 -4.8125 Z M 2.671875 -5.390625 "/></g></g></g><g fill="#ffffff" fill-opacity="1"><g transform="translate(134.785347, 50.983872)"><g/></g></g><g fill="#ffffff" fill-opacity="1"><g transform="translate(148.026664, 50.983872)"><g><path d="M 26.0625 -10.046875 L 27.015625 -10.734375 C 28.203125 -11.429688 29.035156 -11.78125 29.515625 -11.78125 C 30.597656 -11.78125 31.769531 -10.800781 33.03125 -8.84375 C 33.800781 -7.625 34.1875 -6.644531 34.1875 -5.90625 C 34.1875 -5.175781 33.945312 -4.566406 33.46875 -4.078125 C 33 -3.585938 32.453125 -3.148438 31.828125 -2.765625 C 31.203125 -2.390625 30.597656 -2.023438 30.015625 -1.671875 C 29.441406 -1.328125 28.265625 -0.875 26.484375 -0.3125 C 24.703125 0.25 22.984375 0.53125 21.328125 0.53125 C 19.671875 0.53125 17.992188 0.3125 16.296875 -0.125 C 14.609375 -0.5625 12.863281 -1.296875 11.0625 -2.328125 C 9.269531 -3.359375 7.65625 -4.613281 6.21875 -6.09375 C 4.789062 -7.582031 3.613281 -9.484375 2.6875 -11.796875 C 1.769531 -14.117188 1.3125 -16.640625 1.3125 -19.359375 C 1.3125 -22.085938 1.765625 -24.554688 2.671875 -26.765625 C 3.578125 -28.984375 4.734375 -30.816406 6.140625 -32.265625 C 7.554688 -33.710938 9.175781 -34.925781 11 -35.90625 C 14.414062 -37.789062 17.847656 -38.734375 21.296875 -38.734375 C 22.941406 -38.734375 24.609375 -38.476562 26.296875 -37.96875 C 27.992188 -37.46875 29.28125 -36.957031 30.15625 -36.4375 L 31.40625 -35.703125 C 32.03125 -35.316406 32.519531 -35 32.875 -34.75 C 33.78125 -34.019531 34.234375 -33.191406 34.234375 -32.265625 C 34.234375 -31.347656 33.867188 -30.378906 33.140625 -29.359375 C 31.773438 -27.472656 30.550781 -26.53125 29.46875 -26.53125 C 28.84375 -26.53125 27.953125 -26.914062 26.796875 -27.6875 C 25.335938 -28.875 23.382812 -29.46875 20.9375 -29.46875 C 18.664062 -29.46875 16.429688 -28.679688 14.234375 -27.109375 C 13.191406 -26.347656 12.320312 -25.269531 11.625 -23.875 C 10.925781 -22.476562 10.578125 -20.894531 10.578125 -19.125 C 10.578125 -17.363281 10.925781 -15.785156 11.625 -14.390625 C 12.320312 -12.992188 13.210938 -11.894531 14.296875 -11.09375 C 16.421875 -9.5625 18.632812 -8.796875 20.9375 -8.796875 C 22.019531 -8.796875 23.039062 -8.929688 24 -9.203125 C 24.957031 -9.484375 25.644531 -9.765625 26.0625 -10.046875 Z M 26.0625 -10.046875 "/></g></g></g><g fill="#ffffff" fill-opacity="1"><g transform="translate(183.563625, 50.983872)"><g><path d="M 20.09375 -38.84375 C 25.257812 -38.84375 29.742188 -36.972656 33.546875 -33.234375 C 37.359375 -29.503906 39.265625 -24.875 39.265625 -19.34375 C 39.265625 -13.8125 37.445312 -9.097656 33.8125 -5.203125 C 30.1875 -1.316406 25.71875 0.625 20.40625 0.625 C 15.101562 0.625 10.59375 -1.289062 6.875 -5.125 C 3.164062 -8.96875 1.3125 -13.539062 1.3125 -18.84375 C 1.3125 -21.738281 1.832031 -24.453125 2.875 -26.984375 C 3.925781 -29.515625 5.320312 -31.632812 7.0625 -33.34375 C 8.8125 -35.050781 10.816406 -36.394531 13.078125 -37.375 C 15.347656 -38.351562 17.6875 -38.84375 20.09375 -38.84375 Z M 10.578125 -19.109375 C 10.578125 -16.003906 11.578125 -13.484375 13.578125 -11.546875 C 15.585938 -9.609375 17.832031 -8.640625 20.3125 -8.640625 C 22.789062 -8.640625 25.023438 -9.582031 27.015625 -11.46875 C 29.003906 -13.351562 30 -15.878906 30 -19.046875 C 30 -22.222656 28.992188 -24.769531 26.984375 -26.6875 C 24.972656 -28.613281 22.726562 -29.578125 20.25 -29.578125 C 17.78125 -29.578125 15.550781 -28.609375 13.5625 -26.671875 C 11.570312 -24.734375 10.578125 -22.210938 10.578125 -19.109375 Z M 10.578125 -19.109375 "/></g></g></g><g fill="#ffffff" fill-opacity="1"><g transform="translate(224.124957, 50.983872)"><g><path d="M 26.875 -36.765625 C 27.207031 -37.378906 27.703125 -37.789062 28.359375 -38 C 29.023438 -38.207031 29.851562 -38.3125 30.84375 -38.3125 C 31.84375 -38.3125 32.648438 -38.222656 33.265625 -38.046875 C 33.878906 -37.878906 34.332031 -37.671875 34.625 -37.421875 C 34.925781 -37.179688 35.144531 -36.816406 35.28125 -36.328125 C 35.488281 -35.765625 35.59375 -34.875 35.59375 -33.65625 L 35.59375 -4.609375 C 35.59375 -3.765625 35.566406 -3.148438 35.515625 -2.765625 C 35.460938 -2.390625 35.296875 -1.9375 35.015625 -1.40625 C 34.523438 -0.46875 33.164062 0 30.9375 0 C 29.570312 0 28.628906 -0.101562 28.109375 -0.3125 C 27.585938 -0.519531 27.148438 -0.851562 26.796875 -1.3125 C 18.941406 -11.78125 13.78125 -18.617188 11.3125 -21.828125 L 11.3125 -4.609375 C 11.3125 -3.765625 11.285156 -3.148438 11.234375 -2.765625 C 11.179688 -2.390625 11.015625 -1.9375 10.734375 -1.40625 C 10.242188 -0.46875 8.878906 0 6.640625 0 C 4.484375 0 3.160156 -0.46875 2.671875 -1.40625 C 2.390625 -1.9375 2.222656 -2.410156 2.171875 -2.828125 C 2.117188 -3.242188 2.09375 -3.851562 2.09375 -4.65625 L 2.09375 -33.859375 C 2.09375 -35.191406 2.257812 -36.160156 2.59375 -36.765625 C 2.925781 -37.378906 3.421875 -37.789062 4.078125 -38 C 4.742188 -38.207031 5.597656 -38.3125 6.640625 -38.3125 C 7.691406 -38.3125 8.519531 -38.210938 9.125 -38.015625 C 9.738281 -37.828125 10.171875 -37.613281 10.421875 -37.375 C 10.554688 -37.269531 10.957031 -36.816406 11.625 -36.015625 C 18.988281 -25.992188 23.90625 -19.378906 26.375 -16.171875 L 26.375 -33.859375 C 26.375 -35.191406 26.539062 -36.160156 26.875 -36.765625 Z M 26.875 -36.765625 "/></g></g></g><g fill="#ffffff" fill-opacity="1"><g transform="translate(261.807759, 50.983872)"><g><path d="M 11.359375 -9.265625 L 27.484375 -9.265625 C 28.285156 -9.265625 28.882812 -9.238281 29.28125 -9.1875 C 29.6875 -9.132812 30.148438 -8.96875 30.671875 -8.6875 C 31.617188 -8.195312 32.09375 -6.835938 32.09375 -4.609375 C 32.09375 -2.160156 31.445312 -0.726562 30.15625 -0.3125 C 29.5625 -0.101562 28.648438 0 27.421875 0 L 6.703125 0 C 4.253906 0 2.820312 -0.660156 2.40625 -1.984375 C 2.195312 -2.546875 2.09375 -3.4375 2.09375 -4.65625 L 2.09375 -33.765625 C 2.09375 -35.546875 2.421875 -36.757812 3.078125 -37.40625 C 3.742188 -38.050781 5.003906 -38.375 6.859375 -38.375 L 27.484375 -38.375 C 28.285156 -38.375 28.882812 -38.347656 29.28125 -38.296875 C 29.6875 -38.242188 30.148438 -38.078125 30.671875 -37.796875 C 31.617188 -37.304688 32.09375 -35.941406 32.09375 -33.703125 C 32.09375 -31.265625 31.445312 -29.835938 30.15625 -29.421875 C 29.5625 -29.210938 28.648438 -29.109375 27.421875 -29.109375 L 11.359375 -29.109375 L 11.359375 -23.8125 L 21.71875 -23.8125 C 22.519531 -23.8125 23.117188 -23.785156 23.515625 -23.734375 C 23.921875 -23.679688 24.390625 -23.515625 24.921875 -23.234375 C 25.859375 -22.753906 26.328125 -21.394531 26.328125 -19.15625 C 26.328125 -16.71875 25.664062 -15.285156 24.34375 -14.859375 C 23.75 -14.648438 22.84375 -14.546875 21.625 -14.546875 L 11.359375 -14.546875 Z M 11.359375 -9.265625 "/></g></g></g><g fill="#ffffff" fill-opacity="1"><g transform="translate(295.198908, 50.983872)"><g><path d="M 26.0625 -10.046875 L 27.015625 -10.734375 C 28.203125 -11.429688 29.035156 -11.78125 29.515625 -11.78125 C 30.597656 -11.78125 31.769531 -10.800781 33.03125 -8.84375 C 33.800781 -7.625 34.1875 -6.644531 34.1875 -5.90625 C 34.1875 -5.175781 33.945312 -4.566406 33.46875 -4.078125 C 33 -3.585938 32.453125 -3.148438 31.828125 -2.765625 C 31.203125 -2.390625 30.597656 -2.023438 30.015625 -1.671875 C 29.441406 -1.328125 28.265625 -0.875 26.484375 -0.3125 C 24.703125 0.25 22.984375 0.53125 21.328125 0.53125 C 19.671875 0.53125 17.992188 0.3125 16.296875 -0.125 C 14.609375 -0.5625 12.863281 -1.296875 11.0625 -2.328125 C 9.269531 -3.359375 7.65625 -4.613281 6.21875 -6.09375 C 4.789062 -7.582031 3.613281 -9.484375 2.6875 -11.796875 C 1.769531 -14.117188 1.3125 -16.640625 1.3125 -19.359375 C 1.3125 -22.085938 1.765625 -24.554688 2.671875 -26.765625 C 3.578125 -28.984375 4.734375 -30.816406 6.140625 -32.265625 C 7.554688 -33.710938 9.175781 -34.925781 11 -35.90625 C 14.414062 -37.789062 17.847656 -38.734375 21.296875 -38.734375 C 22.941406 -38.734375 24.609375 -38.476562 26.296875 -37.96875 C 27.992188 -37.46875 29.28125 -36.957031 30.15625 -36.4375 L 31.40625 -35.703125 C 32.03125 -35.316406 32.519531 -35 32.875 -34.75 C 33.78125 -34.019531 34.234375 -33.191406 34.234375 -32.265625 C 34.234375 -31.347656 33.867188 -30.378906 33.140625 -29.359375 C 31.773438 -27.472656 30.550781 -26.53125 29.46875 -26.53125 C 28.84375 -26.53125 27.953125 -26.914062 26.796875 -27.6875 C 25.335938 -28.875 23.382812 -29.46875 20.9375 -29.46875 C 18.664062 -29.46875 16.429688 -28.679688 14.234375 -27.109375 C 13.191406 -26.347656 12.320312 -25.269531 11.625 -23.875 C 10.925781 -22.476562 10.578125 -20.894531 10.578125 -19.125 C 10.578125 -17.363281 10.925781 -15.785156 11.625 -14.390625 C 12.320312 -12.992188 13.210938 -11.894531 14.296875 -11.09375 C 16.421875 -9.5625 18.632812 -8.796875 20.9375 -8.796875 C 22.019531 -8.796875 23.039062 -8.929688 24 -9.203125 C 24.957031 -9.484375 25.644531 -9.765625 26.0625 -10.046875 Z M 26.0625 -10.046875 "/></g></g></g><g fill="#ffffff" fill-opacity="1"><g transform="translate(330.735868, 50.983872)"><g><path d="M 4.609375 -38.421875 L 33.703125 -38.421875 C 34.828125 -38.421875 35.648438 -38.289062 36.171875 -38.03125 C 36.691406 -37.769531 37.039062 -37.359375 37.21875 -36.796875 C 37.394531 -36.234375 37.484375 -35.5 37.484375 -34.59375 C 37.484375 -33.6875 37.394531 -32.960938 37.21875 -32.421875 C 37.039062 -31.878906 36.742188 -31.503906 36.328125 -31.296875 C 35.703125 -30.984375 34.8125 -30.828125 33.65625 -30.828125 L 23.65625 -30.828125 L 23.65625 -4.5 C 23.65625 -3.695312 23.628906 -3.101562 23.578125 -2.71875 C 23.523438 -2.332031 23.367188 -1.882812 23.109375 -1.375 C 22.847656 -0.875 22.382812 -0.519531 21.71875 -0.3125 C 21.0625 -0.101562 20.191406 0 19.109375 0 C 18.023438 0 17.160156 -0.101562 16.515625 -0.3125 C 15.867188 -0.519531 15.414062 -0.875 15.15625 -1.375 C 14.894531 -1.882812 14.738281 -2.335938 14.6875 -2.734375 C 14.632812 -3.140625 14.609375 -3.742188 14.609375 -4.546875 L 14.609375 -30.828125 L 4.546875 -30.828125 C 3.429688 -30.828125 2.613281 -30.957031 2.09375 -31.21875 C 1.570312 -31.476562 1.222656 -31.890625 1.046875 -32.453125 C 0.867188 -33.015625 0.78125 -33.75 0.78125 -34.65625 C 0.78125 -35.5625 0.867188 -36.285156 1.046875 -36.828125 C 1.222656 -37.367188 1.519531 -37.742188 1.9375 -37.953125 C 2.5625 -38.265625 3.453125 -38.421875 4.609375 -38.421875 Z M 4.609375 -38.421875 "/></g></g></g><g fill="#ffffff" fill-opacity="1"><g transform="translate(361.14363, 50.983872)"><g><path d="M 24.234375 -35.640625 L 38.375 -6.4375 C 38.96875 -5.25 39.265625 -4.359375 39.265625 -3.765625 C 39.265625 -2.515625 38.25 -1.378906 36.21875 -0.359375 C 35.03125 0.234375 34.097656 0.53125 33.421875 0.53125 C 32.742188 0.53125 32.1875 0.367188 31.75 0.046875 C 31.3125 -0.265625 30.992188 -0.59375 30.796875 -0.9375 C 30.609375 -1.289062 30.34375 -1.816406 30 -2.515625 L 27.265625 -8.171875 L 12.765625 -8.171875 L 10.046875 -2.515625 C 9.703125 -1.816406 9.429688 -1.3125 9.234375 -1 C 9.046875 -0.6875 8.734375 -0.363281 8.296875 -0.03125 C 7.859375 0.300781 7.296875 0.46875 6.609375 0.46875 C 5.929688 0.46875 5.003906 0.171875 3.828125 -0.421875 C 1.796875 -1.398438 0.78125 -2.515625 0.78125 -3.765625 C 0.78125 -4.359375 1.078125 -5.25 1.671875 -6.4375 L 15.8125 -35.703125 C 16.195312 -36.503906 16.78125 -37.148438 17.5625 -37.640625 C 18.34375 -38.128906 19.171875 -38.375 20.046875 -38.375 C 21.929688 -38.375 23.328125 -37.460938 24.234375 -35.640625 Z M 20 -23.078125 L 16.546875 -15.90625 L 23.5 -15.90625 Z M 20 -23.078125 "/></g></g></g><g fill="#ffffff" fill-opacity="1"><g transform="translate(401.181595, 50.983872)"><g><path d="M 6.75 -38.421875 L 16.4375 -38.375 C 21.5 -38.375 25.945312 -36.546875 29.78125 -32.890625 C 33.625 -29.242188 35.546875 -24.757812 35.546875 -19.4375 C 35.546875 -14.125 33.664062 -9.5625 29.90625 -5.75 C 26.15625 -1.945312 21.613281 -0.046875 16.28125 -0.046875 L 6.703125 -0.046875 C 4.566406 -0.046875 3.238281 -0.484375 2.71875 -1.359375 C 2.300781 -2.085938 2.09375 -3.207031 2.09375 -4.71875 L 2.09375 -33.8125 C 2.09375 -34.65625 2.117188 -35.265625 2.171875 -35.640625 C 2.222656 -36.023438 2.390625 -36.476562 2.671875 -37 C 3.160156 -37.945312 4.519531 -38.421875 6.75 -38.421875 Z M 16.4375 -9.3125 C 18.945312 -9.3125 21.210938 -10.242188 23.234375 -12.109375 C 25.265625 -13.984375 26.28125 -16.332031 26.28125 -19.15625 C 26.28125 -21.976562 25.289062 -24.34375 23.3125 -26.25 C 21.34375 -28.15625 19.035156 -29.109375 16.390625 -29.109375 L 11.359375 -29.109375 L 11.359375 -9.3125 Z M 16.4375 -9.3125 "/></g></g></g><g fill="#ffffff" fill-opacity="1"><g transform="translate(435.41007, 50.983872)"><g><path d="M 24.234375 -35.640625 L 38.375 -6.4375 C 38.96875 -5.25 39.265625 -4.359375 39.265625 -3.765625 C 39.265625 -2.515625 38.25 -1.378906 36.21875 -0.359375 C 35.03125 0.234375 34.097656 0.53125 33.421875 0.53125 C 32.742188 0.53125 32.1875 0.367188 31.75 0.046875 C 31.3125 -0.265625 30.992188 -0.59375 30.796875 -0.9375 C 30.609375 -1.289062 30.34375 -1.816406 30 -2.515625 L 27.265625 -8.171875 L 12.765625 -8.171875 L 10.046875 -2.515625 C 9.703125 -1.816406 9.429688 -1.3125 9.234375 -1 C 9.046875 -0.6875 8.734375 -0.363281 8.296875 -0.03125 C 7.859375 0.300781 7.296875 0.46875 6.609375 0.46875 C 5.929688 0.46875 5.003906 0.171875 3.828125 -0.421875 C 1.796875 -1.398438 0.78125 -2.515625 0.78125 -3.765625 C 0.78125 -4.359375 1.078125 -5.25 1.671875 -6.4375 L 15.8125 -35.703125 C 16.195312 -36.503906 16.78125 -37.148438 17.5625 -37.640625 C 18.34375 -38.128906 19.171875 -38.375 20.046875 -38.375 C 21.929688 -38.375 23.328125 -37.460938 24.234375 -35.640625 Z M 20 -23.078125 L 16.546875 -15.90625 L 23.5 -15.90625 Z M 20 -23.078125 "/></g></g></g><g fill="#ffffff" fill-opacity="1"><g transform="translate(473.87788, 50.983872)"><g><path d="M 2.671875 -5.390625 C 1.765625 -6.503906 1.3125 -7.503906 1.3125 -8.390625 C 1.3125 -9.285156 2.0625 -10.46875 3.5625 -11.9375 C 4.4375 -12.769531 5.359375 -13.1875 6.328125 -13.1875 C 7.304688 -13.1875 8.671875 -12.316406 10.421875 -10.578125 C 10.910156 -9.984375 11.609375 -9.414062 12.515625 -8.875 C 13.421875 -8.332031 14.253906 -8.0625 15.015625 -8.0625 C 18.265625 -8.0625 19.890625 -9.390625 19.890625 -12.046875 C 19.890625 -12.847656 19.441406 -13.515625 18.546875 -14.046875 C 17.660156 -14.585938 16.554688 -14.976562 15.234375 -15.21875 C 13.910156 -15.46875 12.476562 -15.863281 10.9375 -16.40625 C 9.40625 -16.945312 7.972656 -17.582031 6.640625 -18.3125 C 5.316406 -19.050781 4.207031 -20.210938 3.3125 -21.796875 C 2.425781 -23.390625 1.984375 -25.300781 1.984375 -27.53125 C 1.984375 -30.601562 3.125 -33.28125 5.40625 -35.5625 C 7.695312 -37.851562 10.816406 -39 14.765625 -39 C 16.859375 -39 18.765625 -38.726562 20.484375 -38.1875 C 22.210938 -37.644531 23.410156 -37.09375 24.078125 -36.53125 L 25.390625 -35.546875 C 26.472656 -34.535156 27.015625 -33.679688 27.015625 -32.984375 C 27.015625 -32.285156 26.59375 -31.320312 25.75 -30.09375 C 24.5625 -28.351562 23.34375 -27.484375 22.09375 -27.484375 C 21.351562 -27.484375 20.445312 -27.832031 19.375 -28.53125 C 19.257812 -28.59375 19.054688 -28.765625 18.765625 -29.046875 C 18.472656 -29.328125 18.203125 -29.554688 17.953125 -29.734375 C 17.222656 -30.179688 16.289062 -30.40625 15.15625 -30.40625 C 14.019531 -30.40625 13.078125 -30.132812 12.328125 -29.59375 C 11.578125 -29.0625 11.203125 -28.3125 11.203125 -27.34375 C 11.203125 -26.382812 11.644531 -25.609375 12.53125 -25.015625 C 13.425781 -24.421875 14.535156 -24.019531 15.859375 -23.8125 C 17.179688 -23.601562 18.628906 -23.28125 20.203125 -22.84375 C 21.773438 -22.40625 23.222656 -21.875 24.546875 -21.25 C 25.867188 -20.625 26.972656 -19.535156 27.859375 -17.984375 C 28.753906 -16.429688 29.203125 -14.519531 29.203125 -12.25 C 29.203125 -9.976562 28.75 -7.976562 27.84375 -6.25 C 26.9375 -4.53125 25.75 -3.195312 24.28125 -2.25 C 21.457031 -0.394531 18.441406 0.53125 15.234375 0.53125 C 13.585938 0.53125 12.03125 0.328125 10.5625 -0.078125 C 9.101562 -0.484375 7.921875 -0.984375 7.015625 -1.578125 C 5.160156 -2.691406 3.867188 -3.769531 3.140625 -4.8125 Z M 2.671875 -5.390625 "/></g></g></g></g></g></svg>